<?xml version="1.0" encoding="utf-8"?>
<!-- Generator: Adobe Illustrator 23.1.0, SVG Export Plug-In . SVG Version: 6.00 Build 0)  -->
<svg version="1.1" id="layer_1" xmlns="http://www.w3.org/2000/svg" x="0px" y="0px"
     viewBox="0 0 1133.86 1133.86" style="enable-background:new 0 0 1133.86 1133.86;" xml:space="preserve">
<style type="text/css">.st0{fill:#1a53f1;}</style>
    <g>
	<path class="st0" d="M858.54,718.37c-20-53.31-39.51-105.42-59.08-157.51c-16.26-43.28-32.45-86.59-48.95-129.78
		c-9.8-25.67-24.83-35.59-52.32-35.49c-27.76,0.1-42.77,10.12-52.33,35.52c-42.77,113.65-85.6,227.29-127.92,341.11
		c-4.83,13-8.96,20.03-21.88,7.9c-4.91-4.62-11.65-3.15-17.68-3.18c-30.7-0.11-61.41,0.23-92.11-0.15
		c-18.78-0.23-31.49-12.01-31.24-27.68c0.22-13.65,10.78-24.82,25.73-25.45c18.95-0.8,37.95-0.26,56.93-0.61
		c21.12-0.39,34.03-11.68,33.6-28.93c-0.41-16.64-12.72-26.72-33.59-26.79c-43.54-0.16-87.08-0.01-130.63-0.05
		c-21.67-0.02-33.41-9.1-33.81-25.97c-0.43-18.24,11.1-28.13,33.38-28.22c27.91-0.11,55.82,0.15,83.74,0.01
		c20.01-0.1,33.18-11.24,33.18-27.58c0-16-11.96-26.34-31.76-26.84c-24.53-0.62-49.17,0.33-73.58-1.65
		c-19.66-1.59-29.53-18.99-22.59-36.21c5.67-14.08,17.7-17.25,31.42-17.24c46.89,0.04,93.78,0.15,140.68-0.13
		c18.56-0.11,29.44-9.1,30.66-24.05c1.48-18.12-9.62-30.08-29.38-30.43c-26.23-0.47-52.48,0.05-78.71-0.35
		c-12.85-0.2-22.51-6.18-26.67-18.9c-3.66-11.2-0.66-20.85,8.07-28.69c5.83-5.24,13.09-5.77,20.43-5.79
		c22.89-0.07,45.78-0.34,68.66,0c10.01,0.15,17.84-2.77,25.76-9.32c148.54-122.87,370.49-47.36,412.16,140.87
		c14.43,65.19,2.76,127.41-32.15,184.81c-0.86,1.41-1.95,2.73-3.11,3.91C862.7,716.21,861.62,716.58,858.54,718.37z"/>
        <path class="st0" d="M697.91,711.3c21.77,0.01,43.55,0.14,65.32-0.04c12.07-0.1,20.25,4.49,23.67,16.68
		c1.95,6.95,4.87,13.63,7.25,20.47c11.38,32.79,11.69,33.38-19.1,50.43c-59.82,33.15-123.29,40-189.59,24.43
		c-10.86-2.55-11.97-5.39-6.82-16.39c10.34-22.1,17.6-45.66,25.74-68.76c9.17-26.04,9.76-26.71,36.59-26.82
		C659.95,711.23,678.93,711.29,697.91,711.3z"/>
        <path class="st0" d="M695.71,649.57l40.36,0.16c16.76-1.14,22.44-8.36,17.32-24.36c-12.86-40.24-26.42-80.26-39.83-120.33
		c-2.44-7.3-6.71-12.74-15.52-12.67c-7.91,0.07-12.58,4.65-14.79,11.37c-13.72,41.72-27.5,83.43-40.46,125.38
		c-3.67,11.89,2.48,19.73,15.15,20.31c13.34,0.61,26.74,0.14,40.11,0.14C698.05,649.62,695.71,649.51,695.71,649.57z"/>
        <path class="st0" d="M215.01,503.05c10.82,0.59,22.56,0.45,34.05,2.06c12.93,1.82,20.84,9.62,21.84,23.31
		c1.04,14.15-4.95,24.66-18.67,27.54c-25.18,5.27-50.92,4.72-76.1,0.13c-12.63-2.3-19.76-13.09-19.27-25.95
		c0.51-13.6,8.69-23.05,22.41-25.13C190.72,503.28,202.5,503.65,215.01,503.05z"/>
        <path class="st0" d="M306.55,395.09c27.57-0.18,39.77,7.87,40.01,26.34c0.24,17.68-13.8,27.3-39.82,27.28
		c-2.78,0-5.56,0.03-8.33-0.04c-20.97-0.55-32.4-10.44-32.05-27.71c0.33-16.51,11.25-25.38,31.85-25.87
		C301,395.03,303.78,395.09,306.55,395.09z"/>
</g>
</svg>
