<svg class="icon" viewBox="0 0 1040 1024" version="1.1" xmlns="http://www.w3.org/2000/svg"
     width="13" height="12.8">
    <path fill="#3C99CC"
          d="M595.348837 291.26297h-137.388193a45.796064 45.796064 0 0 0 0 91.592128h137.388193a45.796064 45.796064 0 0 1 45.796065 45.796065v457.960644a45.796064 45.796064 0 0 1-45.796065 45.796064H137.388193a45.796064 45.796064 0 0 1-45.796064-45.796064v-457.960644a45.796064 45.796064 0 0 1 45.796064-45.796065h107.620752a45.796064 45.796064 0 0 0 0-91.592128H137.388193a137.388193 137.388193 0 0 0-137.388193 137.388193v457.960644a137.388193 137.388193 0 0 0 137.388193 137.388193h457.960644a137.388193 137.388193 0 0 0 137.388193-137.388193v-457.960644a137.388193 137.388193 0 0 0-137.388193-137.388193z"/>
    <path fill="#1296db"
          d="M903.556351 0h-457.960644a137.388193 137.388193 0 0 0-137.388194 137.388193v457.960644a137.388193 137.388193 0 0 0 137.388194 137.388193h137.388193a45.796064 45.796064 0 0 0 0-91.592128h-137.388193a45.796064 45.796064 0 0 1-45.796065-45.796065V137.388193a45.796064 45.796064 0 0 1 45.796065-45.796064h457.960644a45.796064 45.796064 0 0 1 45.796064 45.796064v457.960644a45.796064 45.796064 0 0 1-45.796064 45.796065h-104.415027a45.796064 45.796064 0 0 0 0 91.592128h104.415027a137.388193 137.388193 0 0 0 137.388193-137.388193V137.388193a137.388193 137.388193 0 0 0-137.388193-137.388193z"/>
</svg>