<svg xmlns="http://www.w3.org/2000/svg" viewBox="0 0 100 100" baseProfile="basic"
     width="18" height="18">
    <circle cx="77" cy="13" r="1" fill="#f1bc19"/>
    <circle cx="50" cy="50" r="37" fill="#e6edb7"/>
    <circle cx="83" cy="15" r="4" fill="#f1bc19"/>
    <circle cx="87" cy="24" r="2" fill="#88ae45"/>
    <circle cx="81" cy="76" r="2" fill="#fbcd59"/>
    <circle cx="15" cy="63" r="4" fill="#fbcd59"/>
    <circle cx="25" cy="87" r="2" fill="#88ae45"/>
    <circle cx="18.5" cy="51.5" r="2.5" fill="#fff"/>
    <circle cx="79.5" cy="33.5" r="1.5" fill="#fff"/>
    <path fill="#1e65d6"
          d="M31.805,37.803c-0.651-0.36-1.464-0.013-1.646,0.709c-0.602,2.403-5.326,26.176,5.002,19.29 c6.114-4.076,17.214-13.771,22.952-18.362c1.267-1.013,16.067-13.771,17.214-5.738c1.308,9.159,1.148,22.952,0,29.838 c-0.287,1.721-2.295,8.033-9.181,3.443c-2.7-1.801-13.771-12.624-13.771-12.624c-1.026-0.71,2.783-3.204,3.443-3.443 c3.088-1.115,6.834,6.89,12.694,8.887c0.621,0.211,1.278-0.117,1.469-0.745c0.333-1.091,0.756-3.04,0.756-5.847 c0-5.738,1.289-14.919-3.443-14.919c-3.443,0-28.69,21.805-33.281,25.247c0,0-7.836,5.696-9.181,0 c-1.713-7.26-1.148-21.805,0-29.838c0,0,1.148-5.738,8.033-1.148c0,0,13.771,9.181,14.919,10.328 c1.014,1.014-3.443,4.59-4.59,3.443l-1.592-1.592c-0.404-0.404-1.043-0.449-1.5-0.107l-7.466,5.6 c-0.379,0.283-0.918,0.014-0.918-0.459v-2.34c0-0.698,0.317-1.356,0.862-1.793l3.818-3.055c0.562-0.45,0.584-1.314,0.024-1.767 C34.922,39.602,33.025,38.479,31.805,37.803z"/>
    <path fill="#472b29"
          d="M70.554,69.327c-1.431,0-3.035-0.588-4.795-1.761c-2.675-1.784-13.042-11.895-13.839-12.673 c-0.312-0.244-0.46-0.606-0.408-1.004c0.191-1.478,3.664-3.484,4.068-3.63c1.996-0.723,3.918,1.257,6.146,3.547 c2.01,2.065,4.288,4.407,7.013,5.335c0.123,0.042,0.249,0.034,0.357-0.021c0.073-0.038,0.171-0.114,0.216-0.264 c0.331-1.085,0.726-2.945,0.726-5.644c0-0.984,0.038-2.069,0.076-3.191c0.136-3.899,0.304-8.752-1.308-10.421 c-0.395-0.408-0.889-0.606-1.511-0.606c-2.304,0-18.236,13.138-25.894,19.451c-3.225,2.659-5.771,4.759-6.968,5.656 c-0.513,0.372-5.021,3.549-8.039,2.434c-1.145-0.424-1.899-1.378-2.243-2.833c-1.752-7.426-1.132-22.25-0.012-30.098 c0.026-0.133,0.497-2.383,2.529-3.225c1.718-0.714,3.933-0.175,6.586,1.594c1.415,0.944,13.862,9.253,15.025,10.416 c0.187,0.187,0.578,0.717,0.182,1.605c-0.226,0.505-0.644,0.982-0.954,1.292c-1.227,1.227-3.616,2.725-4.808,1.536l-1.592-1.592 c-0.155-0.156-0.406-0.175-0.585-0.042l-7.467,5.6c-0.39,0.291-0.899,0.338-1.334,0.12c-0.435-0.217-0.704-0.654-0.704-1.139v-2.34 c0-0.915,0.41-1.768,1.125-2.34l3.817-3.054c0.108-0.087,0.171-0.216,0.171-0.355c0-0.075-0.019-0.216-0.149-0.322 c-1.435-1.158-3.248-2.239-4.517-2.943l0,0c-0.166-0.091-0.311-0.053-0.385-0.02c-0.071,0.031-0.198,0.11-0.243,0.288 c-0.906,3.614-3.1,17.103,0.107,19.364c0.832,0.588,2.121,0.311,3.828-0.828c4.231-2.82,11.027-8.486,16.489-13.038 c2.401-2.002,4.67-3.893,6.414-5.288l0.333-0.273c7.766-6.412,13.127-9.114,15.949-8.02c1.147,0.444,1.841,1.455,2.062,3.003 c1.361,9.53,1.091,23.487-0.003,30.052c-0.068,0.412-0.754,4.063-3.587,5.29C71.845,69.2,71.218,69.327,70.554,69.327z M52.957,53.948c1.069,1.042,11.091,10.794,13.579,12.453c2.156,1.437,3.952,1.863,5.339,1.26c2.191-0.949,2.74-4.102,2.763-4.236 c1.077-6.464,1.341-20.22-0.003-29.624c-0.146-1.024-0.532-1.645-1.182-1.896c-1.047-0.404-4.557-0.458-14.552,7.794l-0.35,0.287 c-1.733,1.386-3.997,3.273-6.393,5.271c-5.487,4.574-12.315,10.265-16.608,13.127c-2.238,1.492-4.059,1.762-5.413,0.807 c-4.707-3.32-0.701-20.676-0.657-20.85c0.14-0.555,0.52-1.004,1.044-1.231c0.525-0.229,1.117-0.199,1.619,0.08h0.001 c1.316,0.73,3.204,1.857,4.718,3.079c0.428,0.346,0.671,0.861,0.67,1.415c-0.002,0.565-0.256,1.092-0.696,1.444l-3.817,3.054 c-0.381,0.305-0.6,0.759-0.6,1.247v2.087l7.265-5.449c0.729-0.548,1.768-0.474,2.415,0.171l1.592,1.592 c0.05,0.032,0.427,0.08,1.222-0.342c1.271-0.674,2.221-1.769,2.314-2.17c-1.111-0.996-9.356-6.586-14.749-10.181 c-2.204-1.469-4.023-1.976-5.263-1.47c-1.341,0.548-1.692,2.159-1.696,2.175c-1.098,7.696-1.717,22.279-0.004,29.537 c0.232,0.984,0.679,1.587,1.366,1.842c1.958,0.733,5.52-1.375,6.722-2.248c1.162-0.872,3.697-2.962,6.908-5.61 c15.551-12.823,24.425-19.771,26.784-19.771c1.008,0,1.854,0.348,2.518,1.034c2.024,2.096,1.859,6.847,1.7,11.442 c-0.038,1.105-0.075,2.174-0.075,3.143c0,2.872-0.428,4.876-0.786,6.051c-0.146,0.482-0.472,0.874-0.917,1.102 c-0.448,0.23-0.963,0.266-1.447,0.101c-3.043-1.037-5.445-3.506-7.564-5.685c-1.811-1.861-3.519-3.618-4.667-3.207 C55.543,51.761,53.368,53.26,52.957,53.948z"/>
    <path fill="#472b29"
          d="M27.812,68.972v-1c2.395,0,5.038-1.43,6.401-2.282c0.233-0.145,0.542-0.076,0.688,0.159 s0.075,0.542-0.159,0.689C33.289,67.446,30.455,68.971,27.812,68.972z M36.696,64.991c-0.146,0-0.292-0.064-0.391-0.188 c-0.173-0.216-0.137-0.531,0.079-0.703c0.516-0.412,1.119-0.901,1.796-1.455c0.213-0.174,0.528-0.144,0.703,0.071 c0.175,0.214,0.144,0.529-0.07,0.704c-0.681,0.556-1.286,1.047-1.806,1.461C36.916,64.956,36.806,64.991,36.696,64.991z M40.521,61.873c-0.144,0-0.287-0.062-0.386-0.182c-0.176-0.213-0.146-0.528,0.068-0.704l2.234-1.841 c1.295-1.068,2.895-2.387,4.656-3.827c0.213-0.174,0.528-0.144,0.703,0.071c0.175,0.214,0.144,0.529-0.07,0.704 c-1.76,1.439-3.358,2.757-4.653,3.824l-2.235,1.842C40.746,61.835,40.634,61.873,40.521,61.873z M78.238,59.944 c-0.015,0-0.029,0-0.044-0.002c-0.275-0.023-0.479-0.266-0.455-0.541c0.132-1.527,0.233-3.163,0.302-4.862 c0.012-0.275,0.254-0.485,0.521-0.479c0.275,0.011,0.49,0.244,0.479,0.52c-0.07,1.714-0.173,3.365-0.306,4.907 C78.713,59.747,78.494,59.944,78.238,59.944z M78.612,52.893c-0.004,0-0.008,0-0.013,0c-0.275-0.007-0.494-0.236-0.487-0.512 c0.107-4.326,0.017-8.727-0.263-12.728c-0.019-0.275,0.188-0.514,0.464-0.534c0.264-0.011,0.515,0.188,0.534,0.464 c0.281,4.032,0.373,8.465,0.265,12.822C79.105,52.677,78.883,52.893,78.612,52.893z"/>
</svg>