<svg class="icon" viewBox="0 0 1024 1024" version="1.1" xmlns="http://www.w3.org/2000/svg"
     width="16" height="16">
    <path fill="#88ae45"
          d="M407.68 731.392l275.584 0.064a101.056 101.056 0 0 0 0 56.576H407.68a132.096 132.096 0 0 0 0-56.64zM606.336 388.48c10.56 15.68 24.64 28.928 41.152 38.848L390.144 688.96a139.136 139.136 0 0 0-39.296-40.576l255.552-259.84z m-308.8 26.944v210.752a147.136 147.136 0 0 0-56.576 0V415.488a112.32 112.32 0 0 0 56.576 0z"/>
    <path fill="#88ae45"
          d="M787.648 655.296c59.84 0 108.352 46.72 108.352 104.448 0 57.664-48.512 104.448-108.352 104.448s-108.416-46.72-108.416-104.448c0-57.728 48.576-104.448 108.416-104.448z m0 56.512c-29.12 0-51.84 21.952-51.84 47.936 0 25.984 22.72 47.936 51.84 47.936 29.056 0 51.84-21.952 51.84-47.936 0-25.984-22.784-47.936-51.84-47.936zM269.376 623.488c78.08 0 141.312 60.992 141.312 136.256C410.688 835.008 347.392 896 269.44 896 191.296 896 128 835.008 128 759.744c0-75.264 63.296-136.32 141.376-136.32z m0 56.512c-47.36 0-84.864 36.16-84.864 79.744 0 43.52 37.568 79.744 84.864 79.744 47.296 0 84.8-36.224 84.8-79.744s-37.504-79.744-84.8-79.744zM716.928 192c72.896 0 131.968 56.96 131.968 127.168 0 70.272-59.072 127.168-131.968 127.168-72.832 0-131.84-56.96-131.84-127.168S644.032 192 716.864 192z m0 56.512c-42.048 0-75.328 32.128-75.328 70.656 0 38.528 33.28 70.656 75.328 70.656 42.112 0 75.392-32.128 75.392-70.656 0-38.528-33.28-70.656-75.392-70.656zM269.376 210.176c59.84 0 108.352 46.72 108.352 104.448 0 57.728-48.512 104.448-108.352 104.448-59.904 0-108.416-46.72-108.416-104.448 0-57.664 48.512-104.448 108.416-104.448z m0 56.512c-29.12 0-51.84 21.952-51.84 48 0 25.92 22.72 47.872 51.84 47.872 29.056 0 51.84-21.952 51.84-47.936 0-25.984-22.784-47.936-51.84-47.936z"/>
</svg>